<svg xmlns="http://www.w3.org/2000/svg" width="1200" height="630" viewBox="0 0 1200 630"><defs><linearGradient id="g" x1="0" y1="0" x2="1" y2="1"><stop stop-color="#00a650"/><stop offset="1" stop-color="#004b37"/></linearGradient></defs><rect width="1200" height="630" fill="url(#g)"/><g fill="none" stroke="#baffcf" opacity=".26" stroke-width="4"><path d="M-50 145C230 50 345 230 610 145S950 55 1250 135"/><path d="M-50 405C230 305 375 485 650 390S965 315 1250 390"/></g><g transform="translate(600 320)"><rect x="-250" y="-155" width="500" height="310" rx="32" fill="#fff"/><rect x="-250" y="-155" width="500" height="62" rx="32" fill="#e8fff0"/><circle cx="-195" cy="-124" r="10" fill="#009045"/><circle cx="-160" cy="-124" r="10" fill="#77d69b"/><circle cx="-125" cy="-124" r="10" fill="#b5efca"/><rect x="-175" y="-45" width="350" height="42" rx="21" fill="#f0fdf4" stroke="#009045" stroke-width="5"/><circle cx="88" cy="-24" r="13" fill="none" stroke="#009045" stroke-width="7"/><path d="m98-14 24 24" stroke="#009045" stroke-width="7" stroke-linecap="round"/><path d="M-118 55h236M-118 95h175" stroke="#d7eee0" stroke-width="14" stroke-linecap="round"/></g><circle cx="120" cy="105" r="170" fill="none" stroke="#fff" opacity=".07" stroke-width="58"/><circle cx="1090" cy="520" r="205" fill="none" stroke="#fff" opacity=".06" stroke-width="65"/></svg>